HIERARCHY
ROOT Hips
{
	OFFSET 0.000000 0.000000 0.000000 
	CHANNELS 6 Xposition Yposition Zposition Zrotation Yrotation Xrotation
	JOINT LeftUpLeg
	{
		OFFSET 1.363060 -1.794630 0.839290 
		CHANNELS 3 Zrotation Yrotation Xrotation
		JOINT LeftLeg
		{
			OFFSET 2.448110 -6.726130 0.000000 
			CHANNELS 3 Zrotation Yrotation Xrotation
			JOINT LeftFoot
			{
				OFFSET 2.562200 -7.039590 0.000000 
				CHANNELS 3 Zrotation Yrotation Xrotation
				JOINT LeftToeBase
				{
					OFFSET 0.157640 -0.433110 2.322550 
					CHANNELS 3 Zrotation Yrotation Xrotation
					End Site
					{
						OFFSET 0.000000 0.000000 0.000000 
					}
				}
			}
		}
	}
	JOINT RightUpLeg
	{
		OFFSET -1.305520 -1.794630 0.839290 
		CHANNELS 3 Zrotation Yrotation Xrotation
		JOINT RightLeg
		{
			OFFSET -2.542530 -6.985550 0.000000 
			CHANNELS 3 Zrotation Yrotation Xrotation
			JOINT RightFoot
			{
				OFFSET -2.568260 -7.056230 0.000000 
				CHANNELS 3 Zrotation Yrotation Xrotation
				JOINT RightToeBase
				{
					OFFSET -0.164730 -0.452590 2.363150 
					CHANNELS 3 Zrotation Yrotation Xrotation
					End Site
					{
						OFFSET 0.000000 0.000000 0.000000 
					}
				}
			}
		}
	}
	JOINT Spine
	{
		OFFSET 0.028270 2.035590 -0.193380 
		CHANNELS 3 Zrotation Yrotation Xrotation
		JOINT Spine1
		{
			OFFSET 0.056720 2.048850 -0.042750 
			CHANNELS 3 Zrotation Yrotation Xrotation
			JOINT Neck1
			{
				OFFSET -0.054170 1.746240 0.172020 
				CHANNELS 3 Zrotation Yrotation Xrotation
				JOINT Head
				{
					OFFSET 0.104070 1.761360 -0.123970 
					CHANNELS 3 Zrotation Yrotation Xrotation
					End Site
					{
						OFFSET 0.000000 0.000000 0.000000 
					}
				}
			}
			JOINT LeftArm
			{
				OFFSET 3.362410 1.200890 -0.311210 
				CHANNELS 3 Zrotation Yrotation Xrotation
				JOINT LeftForeArm
				{
					OFFSET 4.983000 -0.000000 -0.000000 
					CHANNELS 3 Zrotation Yrotation Xrotation
					JOINT LeftHand
					{
						OFFSET 3.483560 -0.000000 -0.000000 
						CHANNELS 3 Zrotation Yrotation Xrotation
						JOINT LeftHandIndex1
						{
							OFFSET 0.715260 -0.000000 -0.000000 
							CHANNELS 3 Zrotation Yrotation Xrotation
							End Site
							{
								OFFSET 0.000000 0.000000 0.000000 
							}
						}
					}
				}
			}
			JOINT RightArm
			{
				OFFSET -3.136600 1.374050 -0.404650 
				CHANNELS 3 Zrotation Yrotation Xrotation
				JOINT RightForeArm
				{
					OFFSET -5.241900 -0.000000 -0.000000 
					CHANNELS 3 Zrotation Yrotation Xrotation
					JOINT RightHand
					{
						OFFSET -3.444170 -0.000000 -0.000000 
						CHANNELS 3 Zrotation Yrotation Xrotation
						JOINT RightHandIndex1
						{
							OFFSET -0.622530 -0.000000 -0.000000 
							CHANNELS 3 Zrotation Yrotation Xrotation
							End Site
							{
								OFFSET 0.000000 0.000000 0.000000 
							}
						}
					}
				}
			}
		}
	}
}
MOTION
Frames: 13
Frame Time: 0.041667
2.189192 10.207149 -1.967856 -1.189800 -7.240092 12.175222 -2.843409 0.007242 -94.336302 32.671585 17.334236 129.193331 1.730832 -24.051230 -22.457106 0.662600 -5.205900 -14.496900 11.964149 -43.160073 -96.683939 -34.839536 -12.566445 139.808931 -1.994317 23.234541 -16.896913 -0.570400 4.837000 -13.444100 7.094596 9.242360 27.250731 0.245156 4.685580 -5.201892 -8.306285 -7.606995 19.763403 -5.220900 -3.853400 8.999700 -74.122809 -3.616127 71.982897 108.032328 -61.292334 -74.068029 1.068405 -0.059828 29.501477 -7.125000 0.000000 0.000000 76.067403 48.729295 20.778497 -18.698551 34.918738 -4.155568 -0.107501 1.001203 0.240722 7.125000 0.000000 0.000000 
2.192561 10.202790 -1.965676 -1.186801 -7.238089 12.123164 -2.860541 -0.006283 -94.328907 32.688084 17.319241 129.261754 1.714309 -24.017360 -22.361678 0.616900 -5.026900 -13.985200 11.915798 -43.334067 -96.668927 -34.846131 -12.558159 139.845370 -1.998539 23.289272 -16.929627 -0.569000 4.830800 -13.426700 7.097071 9.238849 27.229556 0.229352 4.680773 -5.247261 -8.272038 -7.610195 19.792028 -5.216600 -3.850000 9.017400 -74.127336 -3.646248 71.975749 108.018100 -61.295386 -74.054945 1.068769 -0.058078 29.510263 -7.125000 0.000000 0.000000 76.163549 48.659624 20.785586 -18.720230 34.942335 -4.171492 -0.103550 0.999445 0.289718 7.125000 0.000000 0.000000 
2.195236 10.202591 -1.962605 -1.210788 -7.274892 12.019201 -2.851942 0.026798 -94.194880 32.700193 17.307857 129.308146 1.714080 -23.999452 -22.356696 0.614800 -5.018300 -13.960800 11.840202 -43.421786 -96.473036 -34.843499 -12.561086 139.833617 -2.028245 23.248686 -17.112003 -0.600600 4.960900 -13.796900 7.115807 9.257684 27.245497 0.231479 4.690142 -5.253541 -8.299215 -7.593234 19.828180 -5.244000 -3.841200 9.047600 -74.129387 -3.716137 71.959055 108.078714 -61.286322 -74.104474 1.068355 -0.056667 29.472735 -7.125000 0.000000 0.000000 76.313002 48.528723 20.835633 -18.855168 35.093695 -4.234625 -0.100616 0.990622 0.291354 7.125000 0.000000 0.000000 
2.197118 10.196944 -1.960029 -1.226593 -7.338589 11.990421 -2.830689 0.058849 -94.171084 32.726247 17.288580 129.396929 1.750181 -23.894957 -22.512296 0.668200 -5.227600 -14.558700 11.793822 -43.424926 -96.419307 -34.851912 -12.553686 139.862362 -2.057297 23.164482 -17.282765 -0.654900 5.176100 -14.411500 7.116231 9.276099 27.273697 0.258289 4.700388 -5.211845 -8.365989 -7.562499 19.870017 -5.284100 -3.828900 9.076900 -74.120430 -3.754771 71.919540 108.143880 -61.275783 -74.157721 1.063943 -0.059201 29.484003 -7.125000 0.000000 0.000000 76.197484 48.543742 21.109916 -18.852532 35.076539 -4.230021 -0.113242 0.989863 -0.083601 7.125000 0.000000 0.000000 
2.200883 10.183668 -1.959830 -1.214407 -7.352087 12.066878 -2.805611 -0.010234 -94.368571 32.769106 17.258516 129.548399 1.790067 -23.728855 -22.666306 0.755500 -5.551300 -15.487900 11.762577 -43.412241 -96.621457 -34.876079 -12.526532 139.968873 -2.043958 23.171197 -17.194486 -0.665700 5.217800 -14.530700 7.091143 9.262450 27.271557 0.270825 4.693921 -5.176023 -8.352343 -7.563134 19.901305 -5.284500 -3.827300 9.097300 -74.089470 -3.742445 71.932106 108.261798 -61.255697 -74.252541 1.053633 -0.057965 29.395423 -7.125000 0.000000 0.000000 75.982446 48.630743 21.375668 -18.754629 34.947899 -4.178339 -0.128061 0.994872 -0.582225 7.125000 0.000000 0.000000 
2.207521 10.168410 -1.961019 -1.169971 -7.316369 12.161789 -2.779156 -0.204059 -94.657380 32.807916 17.229264 129.700023 1.772978 -23.669309 -22.557507 0.760200 -5.568300 -15.537000 11.723792 -43.480722 -96.940100 -34.899959 -12.496814 140.087916 -1.995375 23.310698 -16.900949 -0.639500 5.116300 -14.240500 7.049321 9.206205 27.262516 0.270713 4.670118 -5.129214 -8.353539 -7.554476 19.952620 -5.290500 -3.823000 9.125700 -74.064380 -3.731153 71.972535 108.442869 -61.224794 -74.401826 1.047870 -0.052965 29.175260 -7.125000 0.000000 0.000000 76.149457 48.599780 21.271510 -18.817216 35.037229 -4.222692 -0.116773 0.992028 -0.451867 7.125000 0.000000 0.000000 
2.210989 10.163258 -1.961515 -1.149858 -7.339479 12.088183 -2.781365 -0.235376 -94.619729 32.824010 17.215487 129.762737 1.773469 -23.626216 -22.547420 0.763800 -5.581200 -15.573900 11.604882 -43.587188 -96.893855 -34.905051 -12.486656 140.125705 -1.978732 23.416904 -16.810799 -0.640900 5.121800 -14.256300 7.035465 9.183083 27.263871 0.272487 4.657115 -5.138647 -8.354270 -7.511091 20.027857 -5.293500 -3.802800 9.162700 -74.067460 -3.697974 71.965786 108.595738 -61.199293 -74.531226 1.048443 -0.055364 29.196560 -7.125000 0.000000 0.000000 76.368169 48.517655 21.224826 -18.930038 35.182938 -4.293943 -0.106412 0.985816 -0.343272 7.125000 0.000000 0.000000 
2.208809 10.169500 -1.961614 -1.184419 -7.423900 11.837730 -2.781721 0.007640 -94.233447 32.832426 17.204632 129.783860 1.811354 -23.679450 -22.767213 0.814400 -5.758900 -16.086300 11.431860 -43.670965 -96.422947 -34.891822 -12.496902 140.079270 -2.001967 23.414306 -16.956272 -0.655700 5.179500 -14.421400 7.082336 9.223761 27.271639 0.283670 4.668274 -5.227050 -8.278804 -7.490911 20.053245 -5.256800 -3.790400 9.173900 -74.135894 -3.687645 71.929705 108.651845 -61.192094 -74.578192 1.049324 -0.057682 29.335397 -7.125000 0.000000 0.000000 76.375192 48.461901 21.366849 -18.993220 35.255760 -4.334690 -0.108287 0.981812 -0.648860 7.125000 0.000000 0.000000 
2.206233 10.172373 -1.961713 -1.206060 -7.480474 11.667258 -2.770254 0.197600 -93.960821 32.841095 17.192761 129.811056 1.823100 -23.831314 -22.882489 0.819000 -5.774600 -16.131700 11.341862 -43.715922 -96.128686 -34.885100 -12.504202 140.050837 -2.028616 23.325957 -17.105920 -0.682100 5.280700 -14.710800 7.132853 9.254159 27.279379 0.323157 4.680236 -5.283345 -8.308963 -7.485586 20.004704 -5.263700 -3.790100 9.143300 -74.203570 -3.733722 71.903867 108.595578 -61.203861 -74.529977 1.051252 -0.053996 29.367011 -7.125000 0.000000 0.000000 76.357791 48.448750 21.559350 -19.002388 35.259791 -4.340452 -0.115529 0.980509 -0.981586 7.125000 0.000000 0.000000 
2.205738 10.168509 -1.960920 -1.275097 -7.491087 11.592425 -2.692974 0.293830 -93.881448 32.856210 17.178678 129.863026 1.825877 -23.910479 -22.926375 0.815800 -5.763600 -16.100000 11.354228 -43.749143 -96.002778 -34.888610 -12.501841 140.063051 -2.047664 23.281638 -17.215374 -0.702600 5.357800 -14.932000 7.182455 9.263063 27.283891 0.337228 4.687145 -5.287088 -8.366851 -7.484344 20.012479 -5.288100 -3.791800 9.139300 -74.203915 -3.766505 71.936274 108.577386 -61.207622 -74.514916 1.052645 -0.048916 29.174467 -7.125000 0.000000 0.000000 76.338545 48.432895 21.805876 -18.981610 35.214657 -4.318409 -0.130824 0.980071 -1.345812 7.125000 0.000000 0.000000 
2.206531 10.162763 -1.959830 -1.325792 -7.500464 11.510699 -2.624136 0.360019 -93.825879 32.882457 17.156341 129.955598 1.838105 -23.955450 -23.007921 0.820000 -5.777900 -16.141400 11.307774 -43.818693 -95.866075 -34.894112 -12.493592 140.092940 -2.053762 23.325360 -17.256877 -0.699700 5.346900 -14.900600 7.211345 9.269232 27.285388 0.323337 4.688503 -5.297712 -8.321611 -7.507542 20.135345 -5.275400 -3.797600 9.193800 -74.187656 -3.792684 72.011906 108.675005 -61.191941 -74.598172 1.052488 -0.046629 28.839110 -7.125000 0.000000 0.000000 76.333676 48.396546 21.910555 -18.984415 35.204385 -4.312813 -0.138921 0.978906 -1.514991 7.125000 0.000000 0.000000 
2.209998 10.150774 -1.960425 -1.303562 -7.489593 11.562265 -2.598797 0.247657 -93.954093 32.910701 17.134213 130.064458 1.833758 -23.927587 -22.977010 0.803600 -5.721300 -15.977800 11.303903 -43.854611 -96.064883 -34.915532 -12.469687 140.187781 -2.044921 23.345518 -17.200720 -0.692900 5.321400 -14.827500 7.182308 9.237671 27.284885 0.325236 4.673710 -5.264840 -8.221711 -7.532496 20.195081 -5.237900 -3.800900 9.221200 -74.159750 -3.804571 72.054271 108.838166 -61.164319 -74.737584 1.052485 -0.049779 28.769493 -7.125000 0.000000 0.000000 76.396369 48.370338 21.935879 -19.003733 35.225501 -4.324108 -0.137944 0.977528 -1.399570 7.125000 0.000000 0.000000 
2.216240 10.135219 -1.962803 -1.285248 -7.447539 11.703770 -2.553128 0.017707 -94.226386 32.937666 17.115593 130.172350 1.818048 -23.790096 -22.849579 0.774600 -5.619700 -15.684800 11.390643 -43.873445 -96.477123 -34.947282 -12.437320 140.321179 -2.031079 23.334402 -17.104676 -0.701300 5.352700 -14.917400 7.147476 9.182287 27.302990 0.337379 4.654838 -5.157816 -8.144685 -7.540194 20.137291 -5.204000 -3.800700 9.200500 -74.139734 -3.803445 72.051364 109.121856 -61.115470 -74.977061 1.052235 -0.051523 28.927218 -7.125000 0.000000 0.000000 76.392343 48.379675 22.026095 -18.990046 35.202651 -4.316327 -0.141655 0.977574 -1.420980 7.125000 0.000000 0.000000 
